<?xml version="1.0" standalone="no"?>
<!DOCTYPE svg PUBLIC "-//W3C//DTD SVG 20010904//EN"
 "http://www.w3.org/TR/2001/REC-SVG-20010904/DTD/svg10.dtd">
<svg version="1.0" xmlns="http://www.w3.org/2000/svg"
 width="1024.000000pt" height="1024.000000pt" viewBox="0 0 1024.000000 1024.000000"
 preserveAspectRatio="xMidYMid meet">
<metadata>
Created by potrace 1.16, written by Peter Selinger 2001-2019
</metadata>
<g transform="translate(0.000000,1024.000000) scale(0.100000,-0.100000)"
fill="#000000" stroke="none">
<path d="M0 5120 l0 -5120 5120 0 5120 0 0 5120 0 5120 -5120 0 -5120 0 0
-5120z m5185 1938 c33 -40 89 -110 125 -155 36 -45 68 -82 73 -83 4 0 7 27 7
60 l0 61 61 -3 62 -3 -2 -103 c-1 -56 1 -122 4 -145 7 -41 8 -43 73 -69 101
-40 392 -166 437 -189 37 -18 37 -19 10 -14 -16 2 -86 20 -155 39 -175 47
-348 94 -395 106 -34 9 -51 25 -119 113 -163 209 -241 306 -247 307 -5 0 -290
-358 -320 -403 -3 -4 -46 -19 -95 -32 -49 -13 -185 -48 -303 -79 -118 -31
-216 -55 -218 -52 -2 2 11 9 30 15 19 7 86 34 149 62 62 27 169 73 237 102
l125 52 194 243 c107 133 197 242 201 242 3 0 33 -33 66 -72z m-395 -647 l45
-8 -48 -21 c-36 -16 -68 -22 -126 -22 -145 0 -258 -47 -360 -149 -132 -133
-188 -329 -178 -631 7 -207 39 -339 113 -466 35 -59 144 -158 212 -193 169
-85 430 -77 627 20 80 39 176 128 221 205 l29 49 3 -44 c4 -55 -26 -101 -112
-171 -137 -113 -295 -164 -501 -165 -246 0 -442 76 -595 230 -82 82 -113 129
-163 246 -38 89 -67 233 -67 334 0 127 51 314 115 424 150 255 489 412 785
362z m424 -27 c10 -27 7 -424 -4 -424 -5 0 -13 12 -16 28 -16 63 -111 219
-163 266 -25 23 -19 36 18 36 15 0 35 6 45 13 31 23 -6 42 -78 41 -164 -4
-315 -101 -356 -228 -15 -47 -8 -131 14 -175 23 -44 53 -68 107 -86 26 -9 50
-23 53 -31 31 -80 -52 -147 -150 -123 -47 12 -106 67 -125 117 -19 48 -27 136
-17 196 13 84 51 151 128 227 105 104 254 156 451 158 71 1 88 -2 93 -15z
m506 6 c363 -26 586 -216 606 -515 18 -263 -115 -469 -354 -548 -43 -14 -107
-29 -143 -33 -146 -14 -349 60 -314 116 4 6 31 -3 68 -23 59 -30 67 -32 172
-32 95 0 116 3 156 23 134 67 203 212 203 432 0 119 -20 214 -64 300 -30 60
-105 135 -167 167 -103 55 -167 67 -373 67 l-185 1 -5 -535 c-5 -501 -6 -537
-24 -570 -24 -44 -95 -137 -130 -169 l-26 -24 -1 24 c0 13 -3 195 -5 404 -4
347 1 534 14 495 15 -45 80 -68 110 -38 9 9 12 76 12 240 l0 228 163 0 c89 0
218 -5 287 -10z m-397 -1511 c3 -135 14 -169 63 -208 15 -12 36 -21 48 -21 12
0 31 -6 41 -14 17 -12 -16 -14 -243 -14 -144 0 -262 3 -262 7 0 3 26 14 58 23
69 20 91 51 99 138 6 58 7 60 57 93 28 19 69 54 91 79 22 24 41 44 42 43 2 -1
4 -58 6 -126z m-2642 -908 c28 -11 57 -17 65 -14 11 4 14 -7 14 -56 0 -34 -3
-61 -7 -61 -5 1 -17 19 -28 42 -28 58 -64 82 -123 82 -97 0 -157 -69 -168
-195 -10 -105 29 -199 98 -235 61 -32 186 -2 210 51 14 31 28 33 21 3 -26
-107 -227 -123 -336 -28 -68 60 -94 164 -66 264 15 54 91 127 154 148 67 22
105 22 166 -1z m842 -3 c10 -5 26 -7 36 -3 15 5 17 -1 17 -52 -1 -62 -16 -74
-28 -24 -11 42 -52 71 -101 71 -52 0 -77 -22 -77 -70 0 -44 21 -66 100 -105
80 -41 118 -72 130 -111 17 -49 5 -97 -32 -133 -57 -56 -130 -64 -210 -22 -26
13 -40 15 -47 8 -8 -8 -11 7 -11 51 0 35 4 62 10 62 6 0 10 -8 10 -17 0 -60
82 -120 148 -109 51 8 72 32 72 82 0 51 -28 79 -127 125 -75 35 -103 72 -103
137 0 95 120 158 213 110z m2436 3 c35 -13 53 -15 60 -8 18 18 22 2 19 -69
l-3 -69 -22 47 c-27 59 -71 88 -133 88 -59 0 -103 -28 -132 -82 -19 -36 -23
-59 -23 -133 0 -78 3 -96 25 -135 47 -83 121 -110 210 -74 22 9 51 30 65 48
19 24 25 27 25 13 0 -31 -19 -56 -60 -77 -58 -30 -118 -35 -181 -16 -106 30
-167 101 -176 206 -17 189 154 327 326 261z m691 -181 c99 -254 107 -270 124
-270 8 0 18 -4 21 -10 4 -6 -29 -10 -92 -10 -97 0 -98 1 -74 19 23 18 24 20
11 67 -23 85 -21 84 -109 84 l-79 0 -22 -60 c-23 -62 -22 -90 5 -90 8 0 15 -4
15 -10 0 -6 -29 -10 -67 -10 -67 0 -72 4 -31 24 24 12 42 52 143 316 51 132
63 156 76 143 4 -4 40 -91 79 -193z m1052 188 c56 -16 133 -88 154 -143 36
-96 1 -237 -73 -291 -173 -126 -406 -16 -407 191 0 169 165 291 326 243z
m-4622 -105 c111 -290 135 -346 153 -351 43 -11 10 -22 -68 -22 -50 0 -85 4
-85 10 0 6 6 10 14 10 25 0 26 15 4 84 l-21 66 -78 0 -79 0 -16 -37 c-29 -70
-30 -94 -3 -114 l24 -19 -68 0 c-43 0 -66 4 -62 10 3 6 13 10 20 10 22 0 40
34 84 155 21 61 53 143 70 183 18 40 36 84 41 97 5 14 14 25 19 25 5 0 28 -48
51 -107z m869 -60 c86 -228 116 -293 135 -293 9 0 16 -4 16 -10 0 -6 -37 -10
-91 -10 -57 0 -88 4 -84 10 3 6 13 10 22 10 19 0 14 54 -11 113 l-16 37 -79 0
-79 0 -21 -58 c-22 -58 -20 -92 4 -92 8 0 17 -4 20 -10 4 -6 -19 -10 -62 -10
l-67 0 31 28 c17 15 40 52 51 82 11 30 44 116 72 190 29 74 56 145 61 158 5
12 14 22 21 22 8 0 40 -70 77 -167z m605 157 c54 -12 88 -40 105 -84 20 -52
-2 -122 -46 -152 -37 -25 -131 -40 -146 -25 -8 8 -1 11 22 11 23 0 41 9 62 29
24 25 29 38 29 80 0 27 -4 61 -10 75 -12 32 -62 58 -103 54 l-32 -3 -3 -195
c-1 -107 0 -204 2 -215 3 -12 18 -26 33 -32 24 -9 13 -11 -67 -12 -92 -1 -94
0 -72 17 22 17 22 19 20 227 -3 209 -3 210 -25 213 -13 2 -23 8 -23 13 0 12
202 11 254 -1z m473 -13 c38 -20 63 -63 63 -106 0 -36 -50 -98 -85 -107 l-24
-6 32 -43 c18 -23 49 -71 70 -105 20 -34 46 -64 57 -67 38 -10 20 -23 -30 -23
-63 0 -78 13 -144 133 -46 82 -51 87 -82 87 l-34 0 0 -84 c0 -92 5 -116 25
-116 8 0 17 -4 20 -10 4 -6 -27 -10 -87 -10 -88 1 -92 2 -65 16 l27 15 -2 207
c-3 204 -3 207 -25 217 -48 21 -18 27 115 23 104 -3 145 -8 169 -21z m516 -24
c5 -46 -1 -72 -10 -46 -2 7 -13 23 -24 37 -19 24 -27 26 -100 26 l-79 0 0 -95
0 -96 62 3 c53 3 64 6 74 26 20 41 24 36 24 -36 0 -41 -4 -72 -10 -72 -5 0
-10 9 -10 19 0 26 -8 30 -80 38 l-61 6 3 -104 3 -104 77 -3 c91 -3 112 5 129
53 18 48 29 44 29 -9 0 -80 10 -76 -199 -75 -149 0 -181 3 -161 12 14 6 28 16
32 22 11 15 10 370 -2 399 -5 14 -16 26 -25 26 -8 0 -15 5 -15 10 0 6 63 10
169 10 l168 0 6 -47z m757 39 c0 -4 -10 -12 -22 -17 -23 -10 -23 -13 -26 -218
l-2 -207 25 -10 c14 -5 25 -12 25 -15 0 -3 -44 -5 -97 -5 -93 1 -97 2 -70 16
l27 15 -2 207 c-3 204 -3 207 -25 217 -43 18 -23 25 72 25 52 0 95 -3 95 -8z
m872 -15 c121 -54 172 -211 106 -329 -54 -96 -137 -128 -333 -128 -116 0 -119
1 -97 18 22 17 22 20 20 222 -3 202 -3 205 -25 215 -50 22 -17 27 135 23 115
-4 167 -10 194 -21z m2532 -3214 c28 -68 86 -126 157 -158 l61 -27 -58 -24
c-80 -32 -140 -97 -175 -189 l-11 -30 -12 37 c-25 83 -123 179 -198 195 -16 3
-28 8 -28 12 0 3 24 15 53 25 64 22 135 92 163 159 10 26 21 47 24 47 3 0 14
-21 24 -47z"/>
<path d="M7544 3941 c-50 -30 -74 -95 -74 -200 0 -78 3 -95 28 -142 35 -67 76
-92 145 -86 87 8 137 86 137 214 0 96 -17 150 -62 195 -34 34 -43 38 -90 38
-34 0 -64 -7 -84 -19z"/>
<path d="M4858 3954 c-5 -4 -8 -52 -8 -106 0 -110 3 -115 66 -103 57 10 84 44
84 104 0 65 -29 98 -91 107 -24 3 -47 2 -51 -2z"/>
<path d="M6983 3953 c-23 -4 -23 -5 -23 -203 l0 -200 25 -16 c33 -21 116 -14
153 13 37 26 75 106 80 168 13 159 -92 265 -235 238z"/>
</g>
</svg>
